<svg id="Layer_1" data-name="Layer 1" xmlns="http://www.w3.org/2000/svg" viewBox="0 0 291.53 291.53"><defs><style>.cls-1,.cls-2,.cls-3{fill:none;stroke:#000;stroke-miterlimit:10;stroke-width:2.32px;}.cls-1{opacity:0.7;}.cls-2{opacity:0.8;}.cls-3{opacity:0.9;}</style></defs><polygon class="cls-1" points="186.47 103.42 145.55 118.9 105.59 103.78 145.53 56.45 186.47 103.42"/><polygon class="cls-2" points="146.24 255.97 170.54 128.36 145.55 118.9 186.47 103.42 232.85 156.63 146.24 255.97"/><polygon class="cls-1" points="270.55 211.43 146.2 256.22 146.24 255.97 232.85 156.63 186.47 103.42 243.67 81.77 270.55 211.43"/><polygon class="cls-2" points="120.56 128.36 144.87 256.02 61.02 156.63 105.59 103.78 145.55 118.9 120.56 128.36"/><polygon class="cls-1" points="144.91 256.22 20.55 211.43 47.44 81.77 105.59 103.78 61.02 156.63 144.87 256.02 144.91 256.22"/><polygon class="cls-3" points="170.54 128.36 146.24 255.97 145.96 256.3 145.55 256.45 145.09 256.28 144.87 256.02 120.56 128.36 145.55 118.9 170.54 128.36"/></svg>