<svg id="Layer_1" data-name="Layer 1" xmlns="http://www.w3.org/2000/svg" viewBox="0 0 291.53 291.53"><defs><style>.cls-1{fill:none;}.cls-2{fill:#b8e0f2;}.cls-3{fill:#85cae9;}.cls-4{fill:#64bbe3;}</style></defs><path d="M38.33,234.41l2.37.63A8.47,8.47,0,0,1,38,239.72a7.17,7.17,0,0,1-4.73,1.61,8.24,8.24,0,0,1-4.71-1.24,7.66,7.66,0,0,1-2.76-3.59,13.33,13.33,0,0,1-.95-5,11.61,11.61,0,0,1,1.07-5.13A7.5,7.5,0,0,1,29,223a8.53,8.53,0,0,1,4.34-1.14,7.09,7.09,0,0,1,4.52,1.44,7.37,7.37,0,0,1,2.55,4l-2.33.58a5.73,5.73,0,0,0-1.81-3,4.61,4.61,0,0,0-3-.94,5.59,5.59,0,0,0-3.45,1,5.47,5.47,0,0,0-2,2.79,12.72,12.72,0,0,0,.11,7.81,5.12,5.12,0,0,0,2.07,2.67,5.59,5.59,0,0,0,3,.89A5,5,0,0,0,36.46,238,6.22,6.22,0,0,0,38.33,234.41ZM31.2,243l.63-2.27h1.64l-.4,1.38a2.51,2.51,0,0,1,1.56.67,1.71,1.71,0,0,1,.53,1.21,2.2,2.2,0,0,1-.88,1.7,4,4,0,0,1-2.65.74,9.1,9.1,0,0,1-1.76-.15l.13-1.51c.52,0,.9.06,1.15.06a2.89,2.89,0,0,0,1.61-.34.75.75,0,0,0,.36-.63.63.63,0,0,0-.15-.41,1,1,0,0,0-.51-.3A4.45,4.45,0,0,0,31.2,243Z"/><path d="M44.15,231.84a10.57,10.57,0,0,1,2.39-7.33,8,8,0,0,1,6.19-2.65,8.27,8.27,0,0,1,4.47,1.24,8,8,0,0,1,3,3.47,12.59,12.59,0,0,1,0,10.18,7.75,7.75,0,0,1-3.12,3.42,8.58,8.58,0,0,1-4.34,1.16,8.07,8.07,0,0,1-7.54-4.79A11,11,0,0,1,44.15,231.84Zm2.44,0a7.79,7.79,0,0,0,1.74,5.36,5.88,5.88,0,0,0,8.78,0,8.28,8.28,0,0,0,1.73-5.61,10.1,10.1,0,0,0-.74-4,6,6,0,0,0-2.17-2.66,5.71,5.71,0,0,0-3.19-.94,5.91,5.91,0,0,0-4.33,1.82Q46.6,227.64,46.59,231.88Z"/><path d="M64.78,235l2.23-.2a5.34,5.34,0,0,0,.74,2.31,4.13,4.13,0,0,0,1.8,1.47,6.59,6.59,0,0,0,2.75.56,6.38,6.38,0,0,0,2.4-.43,3.33,3.33,0,0,0,1.54-1.16,2.77,2.77,0,0,0,.51-1.61,2.58,2.58,0,0,0-.49-1.55,3.58,3.58,0,0,0-1.61-1.11c-.48-.19-1.55-.5-3.19-.92A15.37,15.37,0,0,1,68,231.15a4.94,4.94,0,0,1-1.91-1.75,4.46,4.46,0,0,1-.63-2.34,5,5,0,0,1,.77-2.67,4.83,4.83,0,0,1,2.25-1.88,8.31,8.31,0,0,1,3.28-.64,8.72,8.72,0,0,1,3.51.67,5.12,5.12,0,0,1,2.35,2,5.93,5.93,0,0,1,.87,3l-2.27.18A3.86,3.86,0,0,0,75,225a4.63,4.63,0,0,0-3.12-.91,4.83,4.83,0,0,0-3.13.82,2.52,2.52,0,0,0-1,2,2.23,2.23,0,0,0,.7,1.67A9.37,9.37,0,0,0,72,229.9a23.29,23.29,0,0,1,4,1.2A5.45,5.45,0,0,1,78.29,233a4.79,4.79,0,0,1,.74,2.67,5.33,5.33,0,0,1-.81,2.83,5.49,5.49,0,0,1-2.36,2.07,7.87,7.87,0,0,1-3.45.74,9.77,9.77,0,0,1-4.07-.75,5.74,5.74,0,0,1-2.58-2.24A6.55,6.55,0,0,1,64.78,235Zm5.65,7.89.64-2.27H72.7L72.3,242a2.54,2.54,0,0,1,1.57.67,1.74,1.74,0,0,1,.52,1.21,2.15,2.15,0,0,1-.88,1.7,4,4,0,0,1-2.65.74,9.17,9.17,0,0,1-1.76-.15l.14-1.5c.52,0,.9.05,1.14.05a2.77,2.77,0,0,0,1.61-.34.75.75,0,0,0,.36-.63.68.68,0,0,0-.14-.41,1.13,1.13,0,0,0-.52-.3A4.34,4.34,0,0,0,70.43,242.85Z"/><path d="M83.42,241V222.19h2.37v9.33l8.9-9.33H97.9l-7.51,7.62L98.23,241H95.1l-6.38-9.53-2.93,3V241Z"/><path d="M113.21,222.19h2.37v10.87a13.42,13.42,0,0,1-.61,4.51,5.43,5.43,0,0,1-2.21,2.71,7.46,7.46,0,0,1-4.18,1.05,8.24,8.24,0,0,1-4.12-.91,5.13,5.13,0,0,1-2.28-2.64,13.06,13.06,0,0,1-.68-4.72V222.19h2.37v10.86a11.06,11.06,0,0,0,.43,3.61,3.42,3.42,0,0,0,1.49,1.79,4.93,4.93,0,0,0,2.58.63,4.8,4.8,0,0,0,3.73-1.24c.74-.83,1.11-2.43,1.11-4.79Z"/><path d="M120.75,241V222.19h2.44l9.4,14.77V222.19h2.27V241h-2.43L123,226.22V241Z"/><path d="M148.3,241V222.19h6.75a15.6,15.6,0,0,1,2.73.18,5.3,5.3,0,0,1,2.21.88,4.56,4.56,0,0,1,1.43,1.82,6,6,0,0,1,.55,2.56,5.93,5.93,0,0,1-1.46,4.06q-1.45,1.67-5.25,1.67h-4.59V241Zm2.37-9.87h4.63a4.72,4.72,0,0,0,3.26-.9,3.29,3.29,0,0,0,1-2.53,3.58,3.58,0,0,0-.56-2,2.67,2.67,0,0,0-1.5-1.11,9.69,9.69,0,0,0-2.21-.17h-4.58Z"/><path d="M166.28,241V222.19h12.95v2.22H168.65v5.77h9.91v2.2h-9.91v6.41h11V241Z"/><path d="M184.21,241V222.19h7.94a10,10,0,0,1,3.64.51,4,4,0,0,1,2,1.79,5.51,5.51,0,0,1,.75,2.84,4.89,4.89,0,0,1-1.24,3.37,6.08,6.08,0,0,1-3.81,1.75,6.2,6.2,0,0,1,1.43.93,12.82,12.82,0,0,1,2,2.51L200,241h-3l-2.37-3.92c-.69-1.13-1.26-2-1.71-2.59a5.44,5.44,0,0,0-1.2-1.26,3.39,3.39,0,0,0-1.08-.5,6.79,6.79,0,0,0-1.32-.09h-2.75V241Zm2.37-10.51h5.09a7.13,7.13,0,0,0,2.54-.36,2.68,2.68,0,0,0,1.4-1.13,3.2,3.2,0,0,0,.47-1.68,2.86,2.86,0,0,0-.92-2.2,4.16,4.16,0,0,0-2.91-.86h-5.67Z"/><path d="M211.87,233.63v-2.21h7.59v7a13.42,13.42,0,0,1-3.61,2.2,10.21,10.21,0,0,1-3.81.74,9.75,9.75,0,0,1-4.79-1.19,7.62,7.62,0,0,1-3.26-3.43,11.31,11.31,0,0,1-1.1-5,12.15,12.15,0,0,1,1.1-5.13,7.48,7.48,0,0,1,3.14-3.54,9.6,9.6,0,0,1,4.73-1.15,9,9,0,0,1,3.51.66,5.84,5.84,0,0,1,2.46,1.84,8.35,8.35,0,0,1,1.36,3.08l-2.14.62a7.13,7.13,0,0,0-1-2.26,4.14,4.14,0,0,0-1.71-1.32,6.15,6.15,0,0,0-2.47-.49,6.91,6.91,0,0,0-2.81.52,5.18,5.18,0,0,0-1.91,1.37,6.35,6.35,0,0,0-1.13,1.86,10.4,10.4,0,0,0-.68,3.78,9.54,9.54,0,0,0,.82,4.21,5.44,5.44,0,0,0,2.4,2.52,7.12,7.12,0,0,0,3.35.82,8.51,8.51,0,0,0,5.23-2v-3.5Z"/><path d="M223.48,231.84a10.57,10.57,0,0,1,2.39-7.33,8,8,0,0,1,6.19-2.65,8.27,8.27,0,0,1,4.47,1.24,8,8,0,0,1,3,3.47,12.59,12.59,0,0,1-.05,10.18,7.78,7.78,0,0,1-3.11,3.42,8.64,8.64,0,0,1-4.35,1.16,8.07,8.07,0,0,1-7.54-4.79A11,11,0,0,1,223.48,231.84Zm2.44,0a7.79,7.79,0,0,0,1.74,5.36,5.88,5.88,0,0,0,8.78,0,8.28,8.28,0,0,0,1.73-5.61,10.1,10.1,0,0,0-.74-4,6,6,0,0,0-2.17-2.66,5.69,5.69,0,0,0-3.19-.94,5.91,5.91,0,0,0-4.33,1.82Q225.93,227.64,225.92,231.88Z"/><path d="M244.81,241V222.19h2.37v16.6H256V241Z"/><path d="M258.11,241,265,222.19h2.55L274.87,241h-2.7l-2.09-5.7h-7.49l-2,5.7Zm5.17-7.73h6.07l-1.87-5.21c-.57-1.58-1-2.88-1.27-3.9a24.81,24.81,0,0,1-1,3.59Z"/><polygon class="cls-1" points="149.54 201.5 149.41 201.66 149.25 201.85 149.11 201.67 148.97 201.49 149.27 201.6 149.54 201.5"/><polygon class="cls-1" points="149.48 201.6 149.31 201.67 149.11 201.75 149.05 201.44 149.03 201.31 149.17 201.49 149.48 201.6"/><polygon class="cls-1" points="149.35 201.28 149.32 201.44 149.16 201.5 149.35 201.28"/><polygon class="cls-1" points="149.32 201.49 149.21 201.44 149.18 201.31 149.32 201.49"/><polygon class="cls-1" points="149.48 201.28 149.45 201.44 149.4 201.75 149.16 201.66 149.03 201.6 149.29 201.5 149.48 201.28"/><polygon class="cls-2" points="180.88 82.21 149.25 94.01 118.36 82.48 149.23 46.41 180.88 82.21"/><polygon class="cls-3" points="149.79 198.49 168.57 101.22 149.25 94.01 180.88 82.21 216.75 122.77 149.79 198.49"/><polygon class="cls-2" points="245.89 164.54 149.75 198.67 149.79 198.49 216.75 122.77 180.88 82.21 225.1 65.71 245.89 164.54"/><polygon class="cls-3" points="129.93 101.22 148.72 198.53 83.9 122.77 118.36 82.48 149.25 94.01 129.93 101.22"/><polygon class="cls-2" points="148.75 198.67 52.62 164.54 73.4 65.71 118.36 82.48 83.9 122.77 148.72 198.53 148.75 198.67"/><polygon class="cls-4" points="168.57 101.22 149.79 198.49 149.56 198.74 149.25 198.85 148.89 198.72 148.72 198.53 129.93 101.22 149.25 94.01 168.57 101.22"/></svg>